# xmcd
#
# Track frame offsets: 
#        150
#        13372
#        31531
#        45372
#        65805
#        79004
#        95890
#        109499
#        122482
#        139614
#        158292
#
# Disc length: 2433 seconds
#
# Revision: 0
# Processed by: cddbd v1.5.1PL2 Copyright (c) Steve Scherf et al.
# Submitted via: ExactAudioCopy v0.95a5
#
DISCID=87097f0b
DTITLE=Two Tons of Steel - Transparent
DYEAR=2003
DGENRE=Country
TTITLE0=Marie's the Name (of His Latest Flame)
TTITLE1=Maybe I
TTITLE2=(The Angels Wanna Wear My) Red Shoes
TTITLE3=You Know
TTITLE4=Back Door
TTITLE5=The Hammer
TTITLE6=Little Pig
TTITLE7=Transparent Heart
TTITLE8=Lonely Love
TTITLE9=Diddly Daddy
TTITLE10=Times Like These
EXTD=
EXTT0=
EXTT1=
EXTT2=
EXTT3=
EXTT4=
EXTT5=
EXTT6=
EXTT7=
EXTT8=
EXTT9=
EXTT10=
PLAYORDER=
